<svg height="42.52380966186524" version="1.1" width="177.77157958984378" xmlns="http://www.w3.org/2000/svg" xmlns:xlink="http://www.w3.org/1999/xlink" style="overflow: hidden; position: relative; left: -0.5px; top: -0.796875px;" viewBox="207.6142102050781 132.28019661865235 177.77157958984378 42.52380966186524" preserveAspectRatio="xMinYMin" id="main_svg"><desc style="-webkit-tap-highlight-color: rgba(0, 0, 0, 0);">Created with Logotizer</desc><defs style="-webkit-tap-highlight-color: rgba(0, 0, 0, 0);"></defs><path fill="#ffffff" stroke="none" d="M-111.33,-16.8L-111.33,0L-113.44,0L-113.44,-37.5L-111.33,-37.5L-111.33,-18.91L-95.63,-18.91L-95.63,-37.5L-93.52,-37.5L-93.52,0L-95.63,0L-95.63,-16.8L-111.33,-16.8ZM-69.14,-16.48L-74.86,-32.2L-80.58,-16.48L-69.14,-16.48M-68.37,-14.37L-81.35,-14.37L-86.58,0L-88.83,0L-74.86,-38.37L-60.92,0L-63.14,0L-68.37,-14.37ZM-53.65,-37.5L-53.65,0L-55.76,0L-55.76,-37.5L-53.65,-37.5ZM-44.04,-35.37L-44.04,-15.14L-37.67,-15.14Q-33.49,-15.14,-30.53,-18.11Q-27.56,-21.07,-27.56,-25.27Q-27.56,-29.46,-30.53,-32.41Q-33.49,-35.37,-37.67,-35.37L-44.04,-35.37M-37.03,-13.03Q-37.34,-13.01,-37.67,-13.01L-44.04,-13.01L-44.04,0L-46.15,0L-46.15,-37.5L-36.31,-37.5Q-32.02,-36.91,-29.02,-33.91Q-25.43,-30.33,-25.43,-25.27Q-25.43,-20.18,-29.02,-16.59Q-31.5,-14.11,-34.71,-13.34L-26.06,0L-28.67,0L-37.03,-13.03ZM9.3,-5.98L10.9,-4.55Q5.41,0.45,-2.02,0.45Q-9.99,0.45,-15.6,-5.17Q-21.21,-10.78,-21.21,-18.75Q-21.21,-26.7,-15.6,-32.32Q-9.99,-37.95,-2.02,-37.95Q5.41,-37.95,10.9,-32.95L9.3,-31.5Q4.47,-35.79,-2.02,-35.79Q-9.07,-35.79,-14.06,-30.8Q-19.06,-25.8,-19.06,-18.75Q-19.06,-11.67,-14.06,-6.68Q-9.07,-1.69,-2.02,-1.69Q4.47,-1.69,9.3,-5.98ZM33.16,-16.48L27.44,-32.2L21.72,-16.48L33.16,-16.48M33.94,-14.37L20.95,-14.37L15.72,0L13.47,0L27.44,-38.37L41.39,0L39.16,0L33.94,-14.37ZM56.74,-20.77Q52.73,-22.1,50.41,-24.42Q48.09,-26.74,48.09,-30.05Q48.09,-33.28,50.41,-35.61Q52.73,-37.95,56.04,-37.95Q59.32,-37.95,61.66,-35.63Q62.95,-34.38,63.44,-32.84L61.55,-32.09Q61.12,-33.23,60.16,-34.2Q58.45,-35.88,56.04,-35.88Q53.62,-35.88,51.91,-34.18Q50.2,-32.48,50.2,-30.05Q50.2,-27.63,51.91,-25.92Q53.51,-24.35,56.32,-23.04Q60.82,-21.59,63.89,-18.52Q67.15,-15.28,67.15,-10.69Q67.15,-6.07,63.89,-2.81Q60.63,0.45,56.04,0.45Q51.44,0.45,48.19,-2.84Q45.58,-5.44,45.07,-8.88L47.06,-9.61Q47.39,-6.56,49.66,-4.29Q52.31,-1.64,56.04,-1.64Q59.79,-1.64,62.44,-4.29Q65.08,-6.94,65.08,-10.69Q65.08,-14.41,62.44,-17.06Q60.12,-19.38,56.74,-20.77ZM81.09,-35.39L81.09,0L78.98,0L78.98,-35.39L69.49,-35.39L69.49,-37.5L90.58,-37.5L90.58,-35.39L81.09,-35.39ZM114.02,-37.5L114.02,-35.39L97.38,-35.39L97.38,-19.8L114.02,-19.8L114.02,-17.7L97.38,-17.7L97.38,-2.11L114.02,-2.11L114.02,0L95.27,0L95.27,-37.5L114.02,-37.5Z" transform="matrix(0.76,0,0,0.76,296.5,167.5659)" style="-webkit-tap-highlight-color: rgba(0, 0, 0, 0);" stroke-width="1"></path></svg>